<?xml version="1.0" standalone="no"?> <!DOCTYPE svg PUBLIC "-//W3C//DTD SVG 20010904//EN" "http://www.w3.org/TR/2001/REC-SVG-20010904/DTD/svg10.dtd"> <svg version="1.0" xmlns="http://www.w3.org/2000/svg" width="300.000000pt" height="300.000000pt" viewBox="0 0 300.000000 300.000000" preserveAspectRatio="xMidYMid meet"> <g transform="translate(0.000000,300.000000) scale(0.050000,-0.050000)" fill="#ffffff" stroke="none"> <path d="M4930 5737 c-88 -78 -517 -442 -954 -810 -859 -725 -822 -682 -709 -802 l61 -65 576 0 c317 0 576 3 576 7 0 20 565 1649 598 1723 52 117 42 114 -148 -53z m-461 -1012 c-164 -486 -125 -455 -544 -434 -346 17 -344 8 -52 249 126 105 280 236 340 293 61 56 113 102 114 100 14 -9 133 101 133 124 0 16 6 24 13 17 7 -7 31 1 55 17 72 51 63 -7 -59 -366z"/> <path d="M2843 3982 l-246 -212 7 -145 c4 -80 1 -145 -5 -145 -29 0 -96 95 -102 146 -17 137 -480 -318 -857 -841 l-330 -458 -440 -306 -440 -307 -110 -392 c-60 -216 -108 -401 -107 -412 3 -16 187 -504 198 -525 1 -3 56 47 121 110 113 111 131 120 411 215 l293 99 17 79 17 79 490 229 c270 125 642 298 827 384 l337 156 67 111 66 111 -69 6 c-113 10 -88 39 70 79 182 48 176 64 60 -175 l-97 -202 -806 -362 c-443 -199 -811 -374 -819 -388 -8 -14 -19 -58 -25 -96 l-11 -71 -335 -118 c-323 -115 -534 -249 -486 -310 10 -13 618 -180 659 -180 15 -1 339 98 720 220 l692 221 550 29 c303 15 583 28 624 29 79 0 50 -21 826 618 176 146 487 398 690 562 399 320 366 281 472 566 12 34 -12 36 -469 30 -266 -3 -483 0 -483 7 0 7 169 105 375 217 206 112 386 214 398 227 19 19 167 362 167 388 0 4 -315 4 -700 1 -662 -6 -762 1 -655 43 25 9 197 98 383 197 l338 181 57 146 c31 81 57 147 57 147 0 0 -451 -3 -1002 -7 l-1003 -6 -66 64 c-37 36 -70 89 -73 118 -6 52 -17 45 -253 -157z m297 -212 l99 -50 679 0 c715 0 751 -5 633 -86 -39 -26 -64 -55 -56 -64 8 -9 4 -10 -10 -2 -84 48 -290 -239 -247 -343 79 -190 183 -224 688 -225 222 0 372 -7 365 -18 -6 -10 0 -23 14 -29 14 -5 9 -11 -13 -11 -68 -3 -400 -208 -517 -319 l-116 -110 -154 33 c-521 112 -1120 58 -1127 -100 0 -21 -5 -25 -11 -11 -7 17 -39 5 -103 -40 -51 -36 -156 -96 -233 -135 -82 -41 -139 -81 -136 -96 4 -15 -3 -22 -13 -15 -42 26 -161 -179 -147 -250 2 -7 -28 -23 -66 -37 -38 -13 -69 -32 -69 -40 0 -8 -14 -15 -31 -15 -42 0 -269 -110 -269 -131 0 -9 -19 -16 -42 -16 -23 0 -111 -35 -195 -77 -168 -85 -536 -256 -692 -323 -79 -33 -93 -47 -70 -62 23 -16 21 -18 -11 -10 -29 7 -76 -23 -169 -109 -71 -65 -139 -119 -150 -120 -12 0 -118 -39 -237 -87 -118 -47 -220 -78 -226 -69 -6 10 -18 13 -28 7 -9 -6 -20 48 -23 120 -4 72 1 130 10 130 10 0 12 13 6 29 -6 17 -4 34 5 40 9 6 42 101 72 212 52 189 61 205 142 267 48 37 81 72 74 79 -7 7 3 13 22 13 18 0 139 74 268 164 327 228 386 276 371 301 -7 12 -4 16 7 9 21 -13 160 164 151 191 -3 8 3 15 12 15 10 0 88 97 174 215 310 425 368 496 477 583 61 48 108 93 104 100 -4 6 6 25 24 41 28 26 30 26 17 -7 -12 -32 -9 -34 16 -13 23 19 45 19 99 2 112 -37 248 77 293 244 32 121 43 137 137 210 102 78 81 76 202 15z m1225 -1391 c243 -50 225 -40 513 -265 381 -298 385 -303 251 -307 -56 -2 -106 -17 -131 -39 -33 -29 -38 -30 -27 -4 6 18 2 38 -10 45 -11 7 -21 -1 -21 -19 0 -26 -5 -27 -28 -6 -15 14 -24 30 -20 34 4 5 -18 27 -49 50 -31 23 -52 55 -47 70 6 18 1 22 -17 12 -19 -12 -22 -7 -12 20 12 30 9 32 -17 10 -25 -20 -30 -19 -30 6 0 17 -22 49 -50 70 -27 22 -50 49 -50 61 0 12 -40 49 -90 83 -49 34 -90 57 -90 52 0 -5 -29 1 -65 15 -69 27 -120 29 -185 5 -108 -40 -213 -95 -264 -140 -206 -180 -353 -292 -386 -292 -12 0 -17 -9 -10 -20 7 -11 -1 -20 -17 -20 -16 0 -33 -8 -36 -17 -4 -9 -46 -44 -93 -78 -100 -72 -167 -151 -159 -188 3 -14 -7 -26 -21 -26 -36 -1 -63 -51 -64 -117 0 -68 35 -140 61 -124 10 7 13 -3 5 -22 -8 -21 -5 -30 7 -22 11 7 20 1 20 -12 1 -23 112 -196 162 -250 14 -15 25 -36 25 -47 0 -10 8 -14 18 -8 10 6 14 -6 8 -28 -14 -56 -31 -59 -442 -82 -336 -19 -472 -36 -564 -73 -16 -7 -39 -14 -50 -17 -76 -17 -363 -115 -413 -141 -34 -17 -55 -22 -48 -10 7 12 0 22 -16 22 -16 0 -33 -7 -36 -16 -4 -9 -155 -64 -335 -122 -361 -116 -393 -118 -558 -29 -52 27 -79 45 -60 40 47 -15 348 119 340 152 -6 20 -2 20 19 0 14 -14 48 -24 76 -23 l51 2 -50 14 c-48 14 -48 15 17 28 37 8 63 24 59 37 -10 29 228 268 281 282 30 8 38 2 30 -22 -9 -30 -8 -30 11 -1 11 17 59 48 106 68 47 21 154 68 236 106 83 37 184 81 225 98 41 17 71 36 67 43 -7 12 28 18 132 24 22 1 30 12 21 34 -7 20 -4 27 10 18 25 -15 168 46 155 66 -4 7 33 12 82 10 73 -2 87 3 78 30 -7 23 3 33 32 36 57 4 202 102 188 126 -7 10 1 13 18 7 16 -6 46 -1 66 12 32 21 33 22 1 12 -22 -7 -35 0 -35 19 0 16 13 29 28 29 16 0 45 43 64 95 19 52 46 111 59 131 27 40 -18 165 -51 144 -33 -20 -6 92 35 148 175 236 597 321 1090 221z m245 -473 c127 -158 230 -299 230 -313 0 -64 -455 -427 -489 -390 -14 15 -100 122 -192 237 -92 116 -201 250 -243 298 -98 113 -111 89 153 297 284 225 255 232 541 -129z m685 229 c-5 -14 -29 -25 -55 -25 -26 0 -50 11 -55 25 -5 16 13 25 55 25 42 0 60 -9 55 -25z m-1508 -387 c93 -35 228 -284 173 -318 -38 -24 -21 -52 19 -31 70 38 129 -4 254 -184 67 -95 62 -103 -213 -325 l-210 -170 -40 46 c-180 209 -491 608 -486 623 7 23 437 371 458 371 8 0 28 -5 45 -12z"/> <path d="M2770 3212 c-69 -30 -225 -151 -364 -282 -53 -49 -103 -89 -111 -90 -8 0 -15 -14 -15 -31 0 -19 9 -26 23 -17 15 9 18 5 9 -9 -8 -13 -21 -20 -29 -15 -40 25 -123 -103 -123 -190 0 -254 423 -320 642 -100 91 90 158 194 158 246 0 14 13 51 29 82 20 38 22 51 5 43 -13 -7 -7 2 13 18 20 17 32 39 25 50 -7 11 -4 23 6 26 10 4 20 21 23 37 24 176 -133 301 -291 232z m118 -115 c-10 -16 -4 -20 17 -12 40 16 64 -40 33 -77 -12 -15 -30 -23 -38 -18 -35 22 -160 -188 -160 -267 l0 -77 -215 -51 c-242 -58 -262 -55 -165 21 171 134 481 410 471 420 -6 6 4 27 22 47 37 42 57 49 35 14z"/> <path d="M4213 1871 c-35 -27 -31 -35 63 -148 54 -65 114 -140 132 -166 26 -37 39 -42 66 -25 57 35 50 53 -76 208 -140 171 -136 168 -185 131z"/> <path d="M3650 1420 c-53 -59 0 -119 67 -77 52 32 53 42 6 84 -34 31 -39 31 -73 -7z"/> <path d="M3852 1182 c-60 -67 5 -146 76 -92 35 27 36 31 4 79 -39 61 -37 61 -80 13z"/> </g> </svg>